<svg xmlns="http://www.w3.org/2000/svg" height="48" viewBox="0 96 960 960" width="48"><path d="M171.261 954.826q-55.575 0-77.18-48.826-21.603-48.826 15.223-90.652l244.609-275.609V284.74h-37.826q-17.561 0-29.607-12.006-12.045-12.006-12.045-29.744 0-17.174 12.045-29.299 12.046-12.126 29.607-12.126h327.826q17.036 0 29.561 12.096Q686 225.758 686 243.393q0 18.061-12.051 29.704-12.05 11.643-30.036 11.643h-36.826v254.999l244.174 275.609q36.261 41.826 14.301 90.652-21.959 48.826-76.823 48.826H171.261Zm-.695-83.174h619.433L523.598 569.868V284.74h-86.511v285.128L170.566 871.652ZM478 577.696Z"/></svg>